PathFileType	4	(x/y/z)	A01_PREF_T0018.trc
DataRate	CameraRate	NumFrames	NumMarkers	Units	OrigDataRate	OrigDataStartFrame	OrigNumFrames
240	240	7	48	mm	240	39	310
Frame#	Time	TOP_HEAD			R_AC			L_AC			R_ASIS			L_ASIS			R_PSIS			L_PSIS			SACRAL			L_IC			R_IC			L_GT			R_GT			R_LAT_KNEE			R_MED_KNEE			L_MED_KNEE			L_LAT_KNEE			R_TOE			L_TOE			R_1ST_MET			L_1ST_MET			L_5TH_MET			R_5TH_MET			R_LAT_ANK			R_MED_ANK			L_MED_ANK			L_LAT_ANK			L_HEEL_SUP			R_HEEL_SUP			L_HEEL_LAT			R_HEEL_LAT			L_HEEL_MED			R_HEEL_MED			R_LL_PROX_POST			R_LL_PROX_ANT			R_LL_DIST_ANT			R_LL_DIST_POST			R_THIGH_PROX_POST			R_THIGH_PROX_ANT			R_THIGH_DIST_ANT			R_THIGH_DIST_POST			L_PROS_PROX_ANT			L_PROS_PROX_POST			L_PROS_DIST_POST			L_PROS_DIST_ANT			L_THIGH_PROX_ANT			L_THIGH_PROX_POST			L_THIGH_DIST_POST			L_THIGH_DIST_ANT			
		X1	Y1	Z1	X2	Y2	Z2	X3	Y3	Z3	X4	Y4	Z4	X5	Y5	Z5	X6	Y6	Z6	X7	Y7	Z7	X8	Y8	Z8	X9	Y9	Z9	X10	Y10	Z10	X11	Y11	Z11	X12	Y12	Z12	X13	Y13	Z13	X14	Y14	Z14	X15	Y15	Z15	X16	Y16	Z16	X17	Y17	Z17	X18	Y18	Z18	X19	Y19	Z19	X20	Y20	Z20	X21	Y21	Z21	X22	Y22	Z22	X23	Y23	Z23	X24	Y24	Z24	X25	Y25	Z25	X26	Y26	Z26	X27	Y27	Z27	X28	Y28	Z28	X29	Y29	Z29	X30	Y30	Z30	X31	Y31	Z31	X32	Y32	Z32	X33	Y33	Z33	X34	Y34	Z34	X35	Y35	Z35	X36	Y36	Z36	X37	Y37	Z37	X38	Y38	Z38	X39	Y39	Z39	X40	Y40	Z40	X41	Y41	Z41	X42	Y42	Z42	X43	Y43	Z43	X44	Y44	Z44	X45	Y45	Z45	X46	Y46	Z46	X47	Y47	Z47	X48	Y48	Z48	

39	0.15885	-373.62	1720.8	297.68	-582.52	1534.6	554.81	-661.99	1514.5	103.02	-636.9	1063.7	562.64	-616.96	1010	211.39	-845.99	1076.6	421.57	-832.57	1066.1	291.7	-856.97	1042.5	355.63	-651.28	1122.8	163.5	-659.78	1181.6	558.45	-666.98	928.13	168.87	-724.61	963.38	598.72	-842.59	574.52	541.99	-712.06	544.78	430.06	-509.15	562.2	394.37	-533.69	568.05	235.96	-986.04	59.772	443.69	-240.75	111.87	274.53	-1058.4	52.845	395.34	-315.22	74.546	331.4	-346.2	63.122	202.92	-1080.3	56.267	530.71	-1116.4	190.8	507.86	-1101	192.16	406.93	-457.7	126.99	319.17	-486.1	114.84	251.53	-561.55	63.874	291.38	-1208.2	226.96	447.3	-546.18	37.399	259.46	-1222.2	205.58	480.69	-535.24	36.4	324.1	-1218.2	201.76	420.58	-1014	474.81	532.07	-961.71	430.72	557.75	-996.58	365.07	539.64	-1040.7	396.12	523.13	-801.47	842.03	572.25	-729.92	844.11	585.15	-748.12	754.22	577.38	-815.57	753.64	563.09	-470.34	497.35	246.51	-523.99	484.97	235.94	-516.2	422.65	242.35	-466.04	441.27	251.8	-562.94	814.89	212.39	-629.43	798.44	190.04	-596.75	730.57	204.07	-536.25	746.55	224.3
40	0.16303	-367.38	1721	296.38	-576.36	1535.5	553.53	-655.45	1514.5	101.72	-630.97	1064	562.15	-611.37	1010.6	210.9	-840.1	1077	421.91	-826.89	1066.8	291.96	-851.18	1043.1	355.96	-645.19	1123.1	163.02	-653.55	1182.4	557.75	-661.76	928.83	168.66	-718.2	963.46	598.49	-833.46	573.77	542.59	-705.66	544.3	430.32	-503.94	562.47	393.64	-528.52	568.36	235.24	-985.19	59.143	443.81	-240.1	110.07	274.31	-1056.9	54.014	395.2	-314.76	73.302	331.29	-345.88	62.033	202.76	-1079	57.712	530.52	-1111.3	193.28	508	-1095.6	194.46	407.18	-456.65	126.69	318.99	-485.21	114.69	251.39	-561.28	64.185	291.33	-1201.8	231.87	447.1	-546.01	37.657	259.43	-1216.2	210.71	480.47	-535.08	36.614	324.07	-1212.6	207.12	420.37	-1005.7	475.97	532.16	-954.05	431.31	558.2	-989.55	366.05	540.01	-1033.3	397.61	523.25	-794.3	841.28	572.31	-722.75	843.98	584.98	-740.23	753.94	577.42	-807.69	752.78	563.23	-465.87	497.07	245.85	-519.62	485.19	235.3	-512.42	422.8	241.82	-462.09	440.96	251.18	-557.74	815.29	211.63	-624.43	798.96	189.79	-591.82	731.03	203.71	-531.13	746.91	223.46
41	0.16721	-361.18	1721.3	295.1	-570.2	1536.4	552.27	-648.9	1514.5	100.44	-625.06	1064.3	561.66	-605.8	1011.3	210.4	-834.22	1077.5	422.25	-821.23	1067.6	292.24	-845.39	1043.7	356.31	-639.15	1123.3	162.54	-647.35	1183.3	557.07	-656.58	929.55	168.45	-711.77	963.58	598.26	-824.15	573.01	543.24	-699.16	543.84	430.57	-498.81	562.73	392.87	-523.46	568.64	234.49	-984.22	58.451	443.94	-239.48	108.33	274.08	-1055.3	55.358	395.09	-314.31	72.097	331.18	-345.58	60.977	202.6	-1077.6	59.336	530.33	-1106.1	195.89	508.17	-1090	196.86	407.45	-455.62	126.41	318.8	-484.36	114.56	251.24	-561.01	64.487	291.28	-1195.1	236.93	446.92	-545.83	37.91	259.41	-1209.9	216	480.28	-534.92	36.826	324.05	-1206.7	212.66	420.21	-997.05	477.15	532.26	-946.18	431.92	558.68	-982.31	367.07	540.39	-1025.6	399.15	523.39	-787.06	840.53	572.4	-715.52	843.88	584.83	-732.24	753.67	577.49	-799.7	751.92	563.41	-461.49	496.77	245.14	-515.34	485.38	234.62	-508.71	422.92	241.25	-458.22	440.64	250.52	-552.59	815.67	210.83	-619.49	799.48	189.51	-586.97	731.49	203.32	-526.08	747.24	222.58
42	0.17139	-355.01	1721.5	293.84	-564.06	1537.4	551.01	-642.32	1514.7	99.185	-619.18	1064.7	561.17	-600.24	1012	209.89	-828.36	1078	422.59	-815.58	1068.3	292.51	-839.61	1044.3	356.66	-633.17	1123.6	162.07	-641.16	1184.2	556.4	-651.41	930.29	168.24	-705.33	963.74	598.02	-814.67	572.24	543.91	-692.59	543.41	430.8	-493.76	562.98	392.08	-518.51	568.87	233.69	-983.13	57.694	444.1	-238.87	106.63	273.84	-1053.4	56.88	395	-313.88	70.927	331.06	-345.3	59.949	202.44	-1076.1	61.148	530.14	-1100.6	198.61	508.35	-1084.2	199.36	407.75	-454.62	126.15	318.6	-483.54	114.43	251.08	-560.74	64.781	291.25	-1188.1	242.14	446.79	-545.65	38.159	259.39	-1203.3	221.46	480.12	-534.75	37.036	324.03	-1200.5	218.36	420.08	-988.23	478.36	532.39	-938.1	432.56	559.18	-974.88	368.15	540.81	-1017.8	400.74	523.56	-779.75	839.78	572.52	-708.22	843.79	584.71	-724.15	753.44	577.59	-791.61	751.05	563.63	-457.22	496.45	244.39	-511.16	485.54	233.91	-505.1	423.03	240.64	-454.45	440.3	249.83	-547.49	816.02	210.01	-614.6	800.02	189.21	-582.19	731.94	202.9	-521.11	747.55	221.66
43	0.17557	-348.89	1721.8	292.59	-557.94	1538.4	549.77	-635.74	1514.8	97.949	-613.32	1065.2	560.68	-594.7	1012.7	209.38	-822.5	1078.5	422.91	-809.94	1069	292.78	-833.83	1044.9	357	-627.24	1123.9	161.61	-635.01	1185.2	555.74	-646.25	931.04	168.02	-698.88	963.94	597.78	-805.03	571.47	544.61	-685.92	543.01	431.03	-488.79	563.2	391.25	-513.68	569.06	232.87	-981.9	56.872	444.27	-238.29	104.96	273.6	-1051.4	58.581	394.95	-313.45	69.785	330.93	-345.02	58.948	202.28	-1074.4	63.157	529.96	-1095	201.46	508.56	-1078.2	201.98	408.05	-453.64	125.92	318.39	-482.74	114.32	250.92	-560.46	65.066	291.21	-1180.8	247.47	446.69	-545.46	38.405	259.38	-1196.5	227.06	479.99	-534.57	37.244	324.01	-1194	224.22	419.99	-979.19	479.6	532.55	-929.82	433.23	559.72	-967.26	369.27	541.24	-1009.7	402.38	523.75	-772.38	839.03	572.67	-700.88	843.73	584.61	-715.97	753.22	577.73	-783.42	750.18	563.88	-453.04	496.12	243.61	-507.07	485.67	233.17	-501.56	423.12	240.01	-450.76	439.94	249.11	-542.44	816.35	209.15	-609.75	800.55	188.89	-577.49	732.37	202.44	-516.21	747.82	220.7
44	0.17975	-342.82	1722.1	291.38	-551.86	1539.4	548.55	-629.14	1515.1	96.738	-607.49	1065.7	560.19	-589.17	1013.5	208.87	-816.66	1079	423.21	-804.3	1069.8	293.03	-828.05	1045.5	357.33	-621.38	1124.2	161.16	-628.89	1186.2	555.1	-641.09	931.8	167.79	-692.43	964.17	597.53	-795.23	570.7	545.34	-679.17	542.64	431.25	-483.92	563.41	390.39	-508.95	569.22	232.01	-980.53	55.985	444.45	-237.72	103.33	273.36	-1049.2	60.459	394.93	-313.04	68.673	330.81	-344.75	57.973	202.12	-1072.5	65.367	529.79	-1089.1	204.42	508.8	-1072	204.7	408.38	-452.69	125.7	318.18	-481.97	114.21	250.77	-560.18	65.345	291.19	-1173.3	252.93	446.63	-545.28	38.647	259.37	-1189.3	232.8	479.9	-534.4	37.451	324	-1187.2	230.21	419.94	-969.95	480.88	532.72	-921.34	433.94	560.27	-959.45	370.45	541.69	-1001.5	404.07	523.96	-764.94	838.28	572.84	-693.48	843.69	584.52	-707.72	753.03	577.9	-775.15	749.32	564.17	-448.95	495.76	242.79	-503.08	485.78	232.41	-498.1	423.18	239.34	-447.15	439.57	248.36	-537.42	816.65	208.26	-604.94	801.08	188.53	-572.84	732.79	201.96	-511.38	748.05	219.71
45	0.18393	-336.79	1722.4	290.2	-545.81	1540.5	547.34	-622.54	1515.4	95.553	-601.68	1066.3	559.71	-583.66	1014.2	208.36	-810.84	1079.5	423.49	-798.67	1070.5	293.26	-822.27	1046	357.63	-615.56	1124.6	160.71	-622.81	1187.1	554.47	-635.94	932.55	167.55	-685.96	964.43	597.28	-785.3	569.93	546.08	-672.33	542.3	431.46	-479.15	563.59	389.51	-504.32	569.35	231.14	-979	55.036	444.66	-237.17	101.74	273.12	-1046.7	62.507	394.95	-312.63	67.59	330.69	-344.49	57.026	201.97	-1070.4	67.782	529.64	-1083.1	207.51	509.05	-1065.5	207.53	408.72	-451.77	125.49	317.97	-481.23	114.12	250.61	-559.89	65.618	291.16	-1165.4	258.48	446.61	-545.09	38.885	259.36	-1182	238.66	479.85	-534.22	37.656	323.99	-1180.1	236.31	419.94	-960.51	482.18	532.92	-912.68	434.68	560.84	-951.45	371.68	542.16	-993.02	405.81	524.2	-757.44	837.54	573.03	-686.04	843.67	584.47	-699.38	752.87	578.1	-766.79	748.46	564.49	-444.95	495.4	241.95	-499.17	485.86	231.64	-494.72	423.23	238.66	-443.63	439.19	247.6	-532.45	816.92	207.35	-600.16	801.61	188.15	-568.25	733.2	201.45	-506.6	748.24	218.69
